HIERARCHY
ROOT Hips
{
	OFFSET 0.000000 0.000000 0.000000
	CHANNELS 6 Xposition Yposition Zposition Zrotation Yrotation Xrotation 
	JOINT LHipJoint
	{
		OFFSET 0.000000 0.000000 0.000000
		CHANNELS 3 Zrotation Yrotation Xrotation
		JOINT LeftUpLeg
		{
			OFFSET 1.363060 -1.794630 0.839290
			CHANNELS 3 Zrotation Yrotation Xrotation
			JOINT LeftLeg
			{
				OFFSET 2.448110 -6.726130 0.000000
				CHANNELS 3 Zrotation Yrotation Xrotation
				JOINT LeftFoot
				{
					OFFSET 2.562200 -7.039590 0.000000
					CHANNELS 3 Zrotation Yrotation Xrotation
					JOINT LeftToeBase
					{
						OFFSET 0.157640 -0.433110 2.322550
						CHANNELS 3 Zrotation Yrotation Xrotation
						End Site
						{
							OFFSET 0.000000 0.000000 0.000000
						}
					}
				}
			}
		}
	}
	JOINT RHipJoint
	{
		OFFSET 0.000000 0.000000 0.000000
		CHANNELS 3 Zrotation Yrotation Xrotation
		JOINT RightUpLeg
		{
			OFFSET -1.305520 -1.794630 0.839290
			CHANNELS 3 Zrotation Yrotation Xrotation
			JOINT RightLeg
			{
				OFFSET -2.542530 -6.985550 0.000000
				CHANNELS 3 Zrotation Yrotation Xrotation
				JOINT RightFoot
				{
					OFFSET -2.568260 -7.056230 0.000000
					CHANNELS 3 Zrotation Yrotation Xrotation
					JOINT RightToeBase
					{
						OFFSET -0.164730 -0.452590 2.363150
						CHANNELS 3 Zrotation Yrotation Xrotation
						End Site
						{
							OFFSET 0.000000 0.000000 0.000000
						}
					}
				}
			}
		}
	}
	JOINT LowerBack
	{
		OFFSET 0.000000 0.000000 0.000000
		CHANNELS 3 Zrotation Yrotation Xrotation
		JOINT Spine
		{
			OFFSET 0.028270 2.035590 -0.193380
			CHANNELS 3 Zrotation Yrotation Xrotation
			JOINT Spine1
			{
				OFFSET 0.056720 2.048850 -0.042750
				CHANNELS 3 Zrotation Yrotation Xrotation
				JOINT Neck
				{
					OFFSET 0.000000 0.000000 0.000000
					CHANNELS 3 Zrotation Yrotation Xrotation
					JOINT Neck1
					{
						OFFSET -0.054170 1.746240 0.172020
						CHANNELS 3 Zrotation Yrotation Xrotation
						JOINT Head
						{
							OFFSET 0.104070 1.761360 -0.123970
							CHANNELS 3 Zrotation Yrotation Xrotation
							End Site
							{
								OFFSET 0.000000 0.000000 0.000000
							}
						}
					}
				}
				JOINT LeftShoulder
				{
					OFFSET 0.000000 0.000000 0.000000
					CHANNELS 3 Zrotation Yrotation Xrotation
					JOINT LeftArm
					{
						OFFSET 3.362410 1.200890 -0.311210
						CHANNELS 3 Zrotation Yrotation Xrotation
						JOINT LeftForeArm
						{
							OFFSET 4.983000 -0.000000 -0.000000
							CHANNELS 3 Zrotation Yrotation Xrotation
							JOINT LeftHand
							{
								OFFSET 3.483560 -0.000000 -0.000000
								CHANNELS 3 Zrotation Yrotation Xrotation
								JOINT LeftFingerBase
								{
									OFFSET 0.000000 0.000000 0.000000
									CHANNELS 3 Zrotation Yrotation Xrotation
									JOINT LeftHandIndex1
									{
										OFFSET 0.715260 -0.000000 -0.000000
										CHANNELS 3 Zrotation Yrotation Xrotation
										End Site
										{
											OFFSET 0.000000 0.000000 0.000000
										}
									}
								}
								JOINT LThumb
								{
									OFFSET 0.000000 0.000000 0.000000
									CHANNELS 3 Zrotation Yrotation Xrotation
									End Site
									{
										OFFSET 0.000000 0.000000 0.000000
									}
								}
							}
						}
					}
				}
				JOINT RightShoulder
				{
					OFFSET 0.000000 0.000000 0.000000
					CHANNELS 3 Zrotation Yrotation Xrotation
					JOINT RightArm
					{
						OFFSET -3.136600 1.374050 -0.404650
						CHANNELS 3 Zrotation Yrotation Xrotation
						JOINT RightForeArm
						{
							OFFSET -5.241900 -0.000000 -0.000000
							CHANNELS 3 Zrotation Yrotation Xrotation
							JOINT RightHand
							{
								OFFSET -3.444170 -0.000000 -0.000000
								CHANNELS 3 Zrotation Yrotation Xrotation
								JOINT RightFingerBase
								{
									OFFSET 0.000000 0.000000 0.000000
									CHANNELS 3 Zrotation Yrotation Xrotation
									JOINT RightHandIndex1
									{
										OFFSET -0.622530 -0.000000 -0.000000
										CHANNELS 3 Zrotation Yrotation Xrotation
										End Site
										{
											OFFSET 0.000000 0.000000 0.000000
										}
									}
								}
								JOINT RThumb
								{
									OFFSET 0.000000 0.000000 0.000000
									CHANNELS 3 Zrotation Yrotation Xrotation
									End Site
									{
										OFFSET 0.000000 0.000000 0.000000
									}
								}
							}
						}
					}
				}
			}
		}
	}
}
MOTION
Frames: 7
Frame Time: 0.008333
10.653964 15.034084 -11.336937 -9.419055 -12.236972 6.813172 -7.303235 -4.235413 -4.153021 15.941164 25.142430 5.252735 -3.829364 16.170632 59.874402 -1.342942 4.973980 35.414999 -8.575021 -2.275988 -16.983804 -5.868654 -4.290718 -3.561666 46.277894 18.034353 -23.400015 -1.291841 -10.459633 46.224186 -19.987684 1.700839 -27.470201 -10.345911 -1.260036 20.553895 10.809840 3.498027 18.623619 -0.136872 7.544610 -4.609134 0.264969 3.162097 16.215462 -3.952560 2.142091 -19.008401 -4.005820 2.347767 11.386335 12.217044 -1.951783 -2.310771 10.928052 -1.317676 2.487037 -80.603469 -48.372228 37.547356 48.719916 -70.315916 13.781913 6.134133 -40.009029 3.489624 0.000002 -0.000001 0.000002 0.000000 0.000000 0.000000 0.000000 -0.000000 0.000000 -6.006375 -6.072468 1.766251 76.034097 7.082253 44.729069 -1.154051 76.211007 35.783998 -92.429637 -16.115725 11.164223 -0.000005 0.000004 -0.000002 0.000000 0.000000 0.000000 0.000000 -0.000000 -0.000000 
10.699204 15.015616 -11.022763 -9.200965 -11.932428 7.730051 -7.793081 -4.643797 -3.667657 16.175401 24.369417 1.550223 -2.239472 17.685522 63.209138 -1.623328 4.445592 35.525116 -8.520600 -3.250262 -16.154495 -5.348820 -4.086405 -3.875941 45.627042 16.569015 -24.299192 -2.695683 -10.679617 47.806855 -20.922619 2.319587 -29.576064 -11.582922 -4.614734 24.234080 10.689659 3.421367 18.216716 -0.117775 7.161277 -4.723057 0.207751 3.018550 16.588099 -3.902885 2.005561 -19.398213 -4.114727 2.204803 10.904977 11.556667 -2.364835 -1.467540 10.305224 -0.863539 2.066129 -80.519105 -46.996185 37.691581 47.070612 -69.789456 15.155848 7.596253 -39.750034 2.910644 0.000002 -0.000001 0.000002 -0.000000 0.000000 0.000000 -0.000000 -0.000000 0.000000 -5.587550 -5.633741 1.988049 75.807617 9.832031 43.833575 3.970023 75.290157 40.764618 -89.060732 -15.348698 9.934756 -0.000005 0.000004 -0.000002 0.000000 0.000000 0.000000 0.000000 0.000000 0.000000 
10.728814 15.028078 -10.740165 -8.516405 -10.763562 9.239751 -7.970517 -5.084902 -3.564732 15.251560 22.906029 -3.467067 -0.148396 18.973223 66.689050 -1.840892 4.012886 34.408720 -7.801369 -2.843637 -14.767597 -4.945214 -3.671263 -3.971314 44.162902 15.013180 -26.491413 -3.472518 -10.516208 49.082083 -21.694039 2.838127 -31.760072 -11.939876 -6.326761 25.621334 10.372146 3.192063 17.684691 -0.059971 6.174407 -5.073334 0.293056 2.216934 16.438159 -4.172597 1.979452 -19.745734 -4.058320 2.189595 10.060728 11.128344 -2.534145 -0.613894 9.343049 0.052562 1.621098 -80.481378 -45.007657 37.401569 45.795680 -69.429127 16.481593 6.948258 -40.135624 3.193079 0.000002 -0.000001 0.000002 0.000000 -0.000000 0.000000 0.000000 0.000000 0.000000 -5.767150 -4.745201 2.438708 75.384147 13.152678 43.215401 7.789286 73.660909 43.667581 -86.992497 -14.869642 9.193361 -0.000005 0.000004 -0.000002 0.000000 0.000000 -0.000000 0.000000 -0.000000 0.000000 
10.758574 15.035586 -10.472027 -7.710235 -9.450212 10.613187 -8.100252 -5.120128 -3.524091 14.179251 20.791323 -8.661885 1.413423 19.868859 70.190300 -1.743601 4.075423 32.505139 -7.265071 -1.456851 -14.519096 -4.691792 -3.438018 -4.078457 42.737866 13.563742 -28.394164 -3.568552 -10.031261 50.292121 -22.896602 2.514332 -33.937958 -11.414180 -4.709601 24.027512 10.182284 2.919000 17.499539 -0.052608 5.206793 -5.473993 -0.379072 1.615371 16.323426 -3.802895 1.953678 -20.368772 -3.730679 2.025262 9.092301 10.378604 -2.634846 0.099967 9.438145 0.857840 0.800084 -80.672789 -42.744480 37.081416 45.010935 -69.011662 16.743862 4.157353 -40.155956 4.251807 0.000002 -0.000001 0.000002 -0.000000 0.000000 0.000000 -0.000000 0.000000 0.000000 -5.497656 -4.398009 3.121249 74.987707 17.137165 42.916630 10.711206 71.765742 45.726217 -86.247906 -14.597827 8.879330 -0.000005 0.000004 -0.000002 -0.000000 0.000000 0.000000 -0.000000 0.000000 0.000000 
10.806577 15.030330 -10.168964 -7.111561 -8.687938 11.822840 -8.673517 -4.314362 -2.877310 13.661111 18.519161 -14.223003 3.337046 20.714015 73.629299 -1.741258 3.881885 30.789100 -7.451713 -1.696185 -14.778523 -4.399177 -3.853049 -4.073087 41.972084 12.469529 -29.493771 -3.627166 -8.975257 51.623452 -24.105446 2.045861 -36.024957 -9.862972 -4.787624 21.090380 10.419587 2.657730 17.056597 -0.195565 4.575865 -5.620437 -1.574566 1.529220 15.879101 -3.040493 1.994876 -20.399931 -3.352088 1.814828 8.251525 9.922718 -2.663693 -0.405996 10.002693 1.127818 0.222643 -80.852246 -40.159376 36.543958 43.859445 -68.585832 17.244411 3.385287 -39.975389 4.528188 0.000002 -0.000001 0.000002 -0.000000 0.000000 -0.000000 0.000000 0.000000 0.000000 -4.894895 -3.936691 3.549586 74.585440 20.103555 42.273167 13.786803 69.784005 49.537626 -84.830452 -13.972924 8.205387 -0.000005 0.000004 -0.000002 -0.000000 -0.000000 0.000000 0.000000 0.000000 0.000000 
10.867357 15.047598 -9.857928 -6.531416 -7.920855 13.014182 -9.784340 -3.267447 -1.945289 13.795325 15.946693 -20.002872 4.563675 21.237437 76.725969 -1.543191 4.270564 29.317728 -7.577565 -1.705867 -15.059732 -3.578856 -4.435682 -4.093927 40.712644 11.219412 -30.498820 -3.465591 -7.711092 52.870327 -25.261597 1.541226 -37.912462 -8.683254 -3.752185 18.383712 10.960188 2.302897 16.701661 -0.462615 3.900000 -5.830975 -2.726005 1.339328 14.769168 -2.399788 2.064904 -19.745564 -3.107705 1.640785 7.414360 9.509116 -2.928746 -0.625802 10.031957 1.079344 -0.126415 -80.712207 -37.136909 36.121705 43.166006 -67.788641 17.554976 4.021482 -39.920852 4.279427 0.000002 -0.000001 0.000002 -0.000000 0.000000 -0.000000 0.000000 0.000000 0.000000 -4.283349 -2.662301 3.430364 73.929062 21.728815 41.616099 15.587875 67.733913 53.375229 -87.377775 -15.093924 8.300138 -0.000005 0.000004 -0.000002 0.000000 -0.000000 0.000000 0.000000 0.000000 -0.000000 
10.925150 15.083784 -9.563063 -5.896316 -6.932486 13.584372 -10.384259 -2.752466 -1.577337 13.585394 13.905850 -24.456800 5.501750 21.235388 79.016478 -1.051041 5.064545 27.131158 -7.101083 -1.513803 -14.108026 -3.022941 -4.789847 -4.251000 39.387986 9.604096 -30.606887 -3.240686 -7.117079 53.132429 -26.057239 1.037037 -39.265242 -8.294948 -2.552441 17.084069 11.322924 2.383524 16.758105 -0.710839 3.817630 -6.129289 -2.802290 1.218378 15.122966 -2.673022 1.900375 -20.375035 -3.001966 1.523769 7.214451 9.277309 -3.430585 -0.903165 9.608021 0.483453 -0.843466 -80.823624 -35.030682 35.734775 43.114384 -67.533638 17.460988 3.656335 -39.715284 4.393950 0.000002 -0.000001 0.000002 -0.000000 0.000000 0.000000 0.000000 0.000000 0.000000 -4.099519 -5.230221 6.996533 73.158045 28.490131 37.818414 15.112525 69.450519 49.940906 -56.184855 -0.036133 2.780641 -0.000005 0.000004 -0.000002 0.000000 -0.000000 0.000000 0.000000 0.000000 -0.000000 
